<svg width="56" height="62" viewBox="0 0 56 62" fill="none" xmlns="http://www.w3.org/2000/svg">
<circle cx="30.6868" cy="23.3333" r="23.3333" fill="#82A2D4"/>
<circle cx="30.8283" cy="54.3031" r="7.07071" fill="#37323E"/>
<path d="M1.14417 19.6768V6.51239H9.86042V8.80715H3.92746V11.944H9.28191V14.2387H3.92746V19.6768H1.14417ZM14.0574 6.51239V19.6768H11.3191V6.51239H14.0574ZM22.2204 15.4729V9.80348H24.9587V19.6768H22.3297V17.8834H22.2268C22.004 18.4619 21.6333 18.9268 21.1148 19.2782C20.6006 19.6296 19.9728 19.8053 19.2314 19.8053C18.5715 19.8053 17.9908 19.6553 17.4895 19.3554C16.9881 19.0554 16.596 18.629 16.3132 18.0762C16.0346 17.5234 15.8932 16.8613 15.8889 16.09V9.80348H18.6272V15.6015C18.6315 16.1843 18.7879 16.6449 19.0964 16.9835C19.405 17.322 19.8185 17.4913 20.337 17.4913C20.667 17.4913 20.9755 17.4163 21.2626 17.2663C21.5498 17.112 21.7812 16.8849 21.9569 16.5849C22.1368 16.285 22.2247 15.9143 22.2204 15.4729ZM32.0964 9.80348V11.8604H26.0028V9.80348H32.0964ZM27.3976 19.6768V9.08998C27.3976 8.37434 27.5369 7.78083 27.8155 7.30945C28.0983 6.83807 28.484 6.48453 28.9725 6.24884C29.461 6.01315 30.0159 5.89531 30.6373 5.89531C31.0573 5.89531 31.4408 5.92745 31.7879 5.99172C32.1393 6.056 32.4007 6.11385 32.5721 6.16528L32.0836 8.22221C31.9765 8.18793 31.8436 8.15579 31.6851 8.12579C31.5308 8.0958 31.3722 8.0808 31.2094 8.0808C30.8066 8.0808 30.5259 8.17507 30.3673 8.36363C30.2088 8.54789 30.1295 8.80715 30.1295 9.1414V19.6768H27.3976ZM38.7168 9.80348V11.8604H32.6231V9.80348H38.7168ZM34.0179 19.6768V9.08998C34.0179 8.37434 34.1572 7.78083 34.4358 7.30945C34.7186 6.83807 35.1043 6.48453 35.5928 6.24884C36.0813 6.01315 36.6363 5.89531 37.2576 5.89531C37.6776 5.89531 38.0611 5.92745 38.4082 5.99172C38.7596 6.056 39.021 6.11385 39.1924 6.16528L38.7039 8.22221C38.5968 8.18793 38.4639 8.15579 38.3054 8.12579C38.1511 8.0958 37.9925 8.0808 37.8297 8.0808C37.4269 8.0808 37.1462 8.17507 36.9876 8.36363C36.8291 8.54789 36.7498 8.80715 36.7498 9.1414V19.6768H34.0179ZM8.28558 30.2984C8.23416 29.7799 8.01347 29.3771 7.62351 29.09C7.23355 28.8029 6.70432 28.6593 6.03581 28.6593C5.58157 28.6593 5.19804 28.7236 4.88522 28.8521C4.57239 28.9764 4.33242 29.15 4.16529 29.3728C4.00245 29.5956 3.92103 29.8485 3.92103 30.1313C3.91246 30.367 3.96174 30.5727 4.06887 30.7484C4.18029 30.9241 4.33242 31.0762 4.52525 31.2048C4.71809 31.329 4.94092 31.4383 5.19376 31.5326C5.44659 31.6226 5.71656 31.6997 6.00367 31.764L7.18641 32.0468C7.76064 32.1754 8.28773 32.3468 8.76768 32.5611C9.24763 32.7753 9.6633 33.0389 10.0147 33.3517C10.3661 33.6645 10.6382 34.033 10.831 34.4573C11.0282 34.8815 11.1289 35.3679 11.1332 35.9164C11.1289 36.7221 10.9232 37.4206 10.5161 38.0119C10.1133 38.599 9.53046 39.0554 8.76768 39.3811C8.00918 39.7025 7.09428 39.8632 6.02296 39.8632C4.96021 39.8632 4.03459 39.7003 3.2461 39.3746C2.46189 39.049 1.8491 38.5669 1.40771 37.9284C0.970615 37.2856 0.741353 36.4907 0.719927 35.5436H3.41322C3.44322 35.985 3.56964 36.3535 3.79247 36.6492C4.01959 36.9406 4.3217 37.1613 4.69881 37.3113C5.0802 37.457 5.51087 37.5298 5.99082 37.5298C6.4622 37.5298 6.87144 37.4613 7.21855 37.3241C7.56994 37.187 7.84206 36.9963 8.0349 36.7521C8.22773 36.5078 8.32415 36.2271 8.32415 35.91C8.32415 35.6143 8.2363 35.3658 8.06061 35.1644C7.8892 34.963 7.63636 34.7915 7.30211 34.6501C6.97215 34.5087 6.56719 34.3802 6.08724 34.2645L4.65381 33.9045C3.54392 33.6345 2.66759 33.2124 2.02479 32.6382C1.382 32.064 1.06275 31.2905 1.06703 30.3177C1.06275 29.5206 1.27487 28.8243 1.7034 28.2286C2.13621 27.633 2.72972 27.168 3.48393 26.8338C4.23814 26.4995 5.09519 26.3324 6.0551 26.3324C7.03214 26.3324 7.88491 26.4995 8.61341 26.8338C9.34619 27.168 9.91613 27.633 10.3232 28.2286C10.7303 28.8243 10.9403 29.5142 10.9532 30.2984H8.28558ZM17.8434 29.8035V31.8604H11.8976V29.8035H17.8434ZM13.2475 27.438H15.9858V36.6428C15.9858 36.8956 16.0243 37.0927 16.1015 37.2341C16.1786 37.3713 16.2857 37.4677 16.4229 37.5234C16.5643 37.5791 16.7271 37.607 16.9114 37.607C17.04 37.607 17.1685 37.5963 17.2971 37.5748C17.4256 37.5491 17.5242 37.5298 17.5928 37.517L18.0234 39.5546C17.8863 39.5975 17.6935 39.6468 17.4449 39.7025C17.1964 39.7625 16.8943 39.7989 16.5386 39.8117C15.8786 39.8375 15.3001 39.7496 14.803 39.5482C14.3102 39.3468 13.9267 39.034 13.6524 38.6097C13.3782 38.1855 13.2432 37.6498 13.2475 37.0027V27.438ZM25.5967 35.4729V29.8035H28.335V39.6768H25.7059V37.8834H25.6031C25.3803 38.4619 25.0096 38.9268 24.4911 39.2782C23.9768 39.6296 23.349 39.8053 22.6077 39.8053C21.9478 39.8053 21.3671 39.6553 20.8657 39.3554C20.3643 39.0554 19.9722 38.629 19.6894 38.0762C19.4109 37.5234 19.2695 36.8613 19.2652 36.09V29.8035H22.0035V35.6015C22.0077 36.1843 22.1642 36.6449 22.4727 36.9835C22.7812 37.322 23.1948 37.4913 23.7133 37.4913C24.0433 37.4913 24.3518 37.4163 24.6389 37.2663C24.926 37.112 25.1574 36.8849 25.3331 36.5849C25.5131 36.285 25.601 35.9143 25.5967 35.4729ZM33.8015 39.8375C33.0515 39.8375 32.3723 39.6446 31.7638 39.2589C31.1596 38.869 30.6796 38.2969 30.324 37.5427C29.9726 36.7842 29.7969 35.8543 29.7969 34.753C29.7969 33.6217 29.979 32.681 30.3432 31.9311C30.7075 31.1769 31.1917 30.6134 31.7959 30.2406C32.4045 29.8635 33.0708 29.6749 33.795 29.6749C34.3478 29.6749 34.8085 29.7692 35.177 29.9577C35.5498 30.142 35.8498 30.3734 36.0769 30.652C36.3083 30.9262 36.484 31.1962 36.604 31.4619H36.6876V26.5124H39.4195V39.6768H36.7197V38.0955H36.604C36.4755 38.3697 36.2933 38.6419 36.0577 38.9118C35.8262 39.1775 35.5241 39.3982 35.1513 39.5739C34.7828 39.7496 34.3328 39.8375 33.8015 39.8375ZM34.6692 37.6584C35.1106 37.6584 35.4834 37.5384 35.7877 37.2984C36.0962 37.0542 36.3319 36.7135 36.4947 36.2764C36.6619 35.8393 36.7454 35.3272 36.7454 34.7401C36.7454 34.153 36.664 33.6431 36.5012 33.2103C36.3383 32.7775 36.1026 32.4432 35.7941 32.2075C35.4856 31.9718 35.1106 31.854 34.6692 31.854C34.2193 31.854 33.84 31.9761 33.5315 32.2204C33.2229 32.4646 32.9894 32.8032 32.8308 33.236C32.6723 33.6688 32.593 34.1702 32.593 34.7401C32.593 35.3143 32.6723 35.8222 32.8308 36.2635C32.9937 36.7006 33.2272 37.0435 33.5315 37.292C33.84 37.5363 34.2193 37.6584 34.6692 37.6584ZM41.3088 39.6768V29.8035H44.0471V39.6768H41.3088ZM42.6844 28.5308C42.2773 28.5308 41.928 28.3958 41.6366 28.1258C41.3495 27.8515 41.206 27.5237 41.206 27.1423C41.206 26.7652 41.3495 26.4417 41.6366 26.1717C41.928 25.8974 42.2773 25.7603 42.6844 25.7603C43.0915 25.7603 43.4386 25.8974 43.7257 26.1717C44.0171 26.4417 44.1628 26.7652 44.1628 27.1423C44.1628 27.5237 44.0171 27.8515 43.7257 28.1258C43.4386 28.3958 43.0915 28.5308 42.6844 28.5308ZM50.3396 39.8696C49.3411 39.8696 48.4776 39.6575 47.7491 39.2332C47.0249 38.8047 46.4657 38.2091 46.0714 37.4463C45.6772 36.6792 45.4801 35.79 45.4801 34.7787C45.4801 33.7588 45.6772 32.8675 46.0714 32.1047C46.4657 31.3376 47.0249 30.742 47.7491 30.3177C48.4776 29.8892 49.3411 29.6749 50.3396 29.6749C51.3381 29.6749 52.1994 29.8892 52.9236 30.3177C53.6521 30.742 54.2135 31.3376 54.6077 32.1047C55.002 32.8675 55.1991 33.7588 55.1991 34.7787C55.1991 35.79 55.002 36.6792 54.6077 37.4463C54.2135 38.2091 53.6521 38.8047 52.9236 39.2332C52.1994 39.6575 51.3381 39.8696 50.3396 39.8696ZM50.3524 37.7484C50.8067 37.7484 51.1859 37.6198 51.4902 37.3627C51.7944 37.1013 52.0237 36.7456 52.178 36.2957C52.3365 35.8457 52.4158 35.3336 52.4158 34.7594C52.4158 34.1852 52.3365 33.6731 52.178 33.2231C52.0237 32.7732 51.7944 32.4175 51.4902 32.1561C51.1859 31.8947 50.8067 31.764 50.3524 31.764C49.8939 31.764 49.5082 31.8947 49.1954 32.1561C48.8869 32.4175 48.6533 32.7732 48.4948 33.2231C48.3405 33.6731 48.2634 34.1852 48.2634 34.7594C48.2634 35.3336 48.3405 35.8457 48.4948 36.2957C48.6533 36.7456 48.8869 37.1013 49.1954 37.3627C49.5082 37.6198 49.8939 37.7484 50.3524 37.7484Z" fill="#37323E"/>
</svg>
